<?xml version="1.0" standalone="no"?><!DOCTYPE svg PUBLIC "-//W3C//DTD SVG 1.1//EN" "http://www.w3.org/Graphics/SVG/1.1/DTD/svg11.dtd"><svg t="1783586799346" class="icon" viewBox="0 0 1024 1024" version="1.1" xmlns="http://www.w3.org/2000/svg" p-id="6299" xmlns:xlink="http://www.w3.org/1999/xlink" width="200" height="200"><path d="M992 473.6c-19.2-6.4-44.8 64-102.4 64-76.8 0-115.2-134.4-236.8-134.4-96 0-128 76.8-134.4 76.8-6.4 0-38.4-76.8-134.4-76.8-128 0-166.4 134.4-243.2 134.4-64 0-89.6-64-102.4-64-19.2 6.4 25.6 230.4 243.2 230.4C416 704 499.2 595.2 512 595.2c12.8 0 96 108.8 230.4 108.8 217.6 0 262.4-224 249.6-230.4z" fill="#4D4D4D" p-id="6300"></path></svg>