<?xml version="1.0" standalone="no"?><!DOCTYPE svg PUBLIC "-//W3C//DTD SVG 1.1//EN" "http://www.w3.org/Graphics/SVG/1.1/DTD/svg11.dtd"><svg t="1783586950930" class="icon" viewBox="0 0 1215 1024" version="1.1" xmlns="http://www.w3.org/2000/svg" p-id="11927" xmlns:xlink="http://www.w3.org/1999/xlink" width="237.3046875" height="200"><path d="M1646.65032569 1061.17239895" fill="#515151" p-id="11928"></path><path d="M441.44195948 666.38659054" fill="#515151" p-id="11929"></path><path d="M1176.17923988 95.57052675l0 30.35700854c0 367.43721828-263.82909916 807.77737934-564.24155144 839.65969928-283.63704351-25.82478407-562.70719645-469.173365-562.70719644-839.65969928l0-30.35700854 62.5196723 0 0 3.02349202-1.52229637 27.32748798 1.52229637 33.40461628 1.52380462 31.88231992 4.5789477 33.4046163 4.57593415 33.40612454 6.09973731 33.4046163 7.62504867 33.39858771 9.15337508 33.42571849 10.67114969 33.40763133 10.67114966 33.39858773 13.7232792 31.88081314 13.72478599 33.40461629 13.73232278 31.88081316 16.77691553 30.37358894 16.77088698 30.36002355 16.77691552 30.37057393 18.29318332 28.85731967 18.3037337 27.32597971 18.29318333 27.32748797 21.34682112 24.30098092 19.82603152 24.27988024 21.35435648 22.77717631 22.87966782 21.26693707 21.34682114 19.7325836 22.8721325 18.20727219 21.3483279 16.71964194 22.87966785 13.65545377 22.8676107 13.67354096 21.35134293 10.62894674 22.87514604 7.60093296 21.35284969 7.58133899 21.34531287 4.54729662 15.24557558 1.52380462 16.77239375-1.52380462 22.88117461-6.07109976 22.87816108-7.57380366 22.8721325-9.11117217 22.87816108-10.64251213 22.87966785-13.65997557 22.8630889-13.67052593 22.87966785-16.700048 22.87966787-18.22987969 21.3468211-19.72353999 22.87213251-21.25789497 21.35586471-22.77717632 19.81548116-24.29947417 19.83356687-25.80368335 19.82301651-25.80820514 18.29469158-27.34105186 18.29469156-28.83621896 16.77842379-30.37358896 16.77842377-30.38112427 13.7232792-30.35248674 15.24708383-31.88081315 12.20098286-31.89437706 12.19495278-33.41215312 12.20851821-31.87629135 9.14734503-33.39858774 9.15488187-33.41215309 7.62203366-33.39708095 6.10124409-33.40461631 4.56839733-33.40009449 3.05514458-31.90191389 1.52229635-33.40612453 1.53133996-31.8838267-1.53133996-27.32447295 0-3.02500024 62.52117908 0L1176.18074664 95.57052675zM726.31794198 667.97822057c-50.3201977 98.71416148-178.43126578 97.18885011-228.75297026 0 12.20098284 1.53133996 24.4110078 3.03404238 38.13428701 4.55634021 42.69062722 25.82478407 112.84288355 25.82478407 152.48288798 0C701.9099492 671.01226294 714.1184674 669.50956052 726.31794198 667.97822057L726.31794198 667.97822057zM518.92384997 302.06480544l4.56839735-31.90191387-3.04459421 0c-85.40838372 21.25186494-186.04727088 9.12624433-311.09565906-40.97992673l-3.04610098-1.52229636c16.77088697 12.15275137 39.64754127 33.4046163 35.07914246 48.60196185C358.80234792 364.32071283 518.92384997 336.9736324 518.92384997 302.06480544L518.92384997 302.06480544zM704.96358553 302.06480544l-4.56990413-31.90191387 3.04610098 0c85.3918048 21.25186494 186.03973553 9.12624433 312.61192686-40.97992673l3.04610099-1.52229636c-16.76335163 12.15275137-39.64904803 33.4046163-35.0640703 48.60196185C865.09262439 364.32071283 704.96358553 336.9736324 704.96358553 302.06480544L704.96358553 302.06480544zM688.18516174 147.1763867l1.53736852 36.45222403 3.04610099-1.52380461c120.47245402-39.4772243 234.84517221-44.03356452 356.8399226-16.70155476l3.04610098 0-1.52531138-36.43564511C932.17617224 95.57052675 804.08620488 103.14432895 688.18516174 147.1763867L688.18516174 147.1763867zM535.70076699 147.1763867l-1.53736853 36.45222403-3.0445942-1.52380461c-120.47245402-39.4772243-234.84517221-44.03356452-355.31461269-16.70155476l-3.05665135 0 1.53133996-36.43564511C291.70372793 95.57052675 419.79218703 103.14432895 535.70076699 147.1763867L535.70076699 147.1763867zM535.70076699 147.1763867" fill="#515151" p-id="11930"></path><path d="M346.62246728 509.80405168A60.95878309 59.64937777 90 1 1 346.62246728 511.31127588Z" fill="#515151" p-id="11931"></path></svg>